<svg xmlns="http://www.w3.org/2000/svg" viewBox="0 0 257.65 193.28">
    <g>
        <path d="M254,0c-.22,2.16-.43,4.17-.65,6.17l-.93,8.58q-.48,4.31-.94,8.63t-.91,8.45c-.3,2.86-.62,5.71-.93,8.57l-.9,8.39c-.31,2.88-.62,5.75-.94,8.63,0,0,0,.08,0,.12.18,1.35-.62,1.89-1.73,2.42-8.28,4-16.53,8-24.8,12L192.52,85.85l-15,7.24-.51.28a51.5,51.5,0,0,1,2.9,10.57l76-17.41-15.79,37.21-59.84-9.9a44.79,44.79,0,0,1-3.11,13.28L233.88,145c-1,.71-1.93,1.37-2.87,2l-19.74,13.72a.83.83,0,0,1-1.07,0Q191,149.38,171.78,138l-.55-.31a51.43,51.43,0,0,1-10.18,10l36.83,32.87-17.14,10.71q-13.5-19.5-27-39.06a57.06,57.06,0,0,1-51.46,0q-13.49,19.51-27,39.06L58.1,180.58,94.93,147.7a51.46,51.46,0,0,1-10.18-10l-4.26,2.53-34.8,20.66a.68.68,0,0,1-.86,0q-11.14-7.77-22.31-15.5c-.11-.08-.21-.18-.38-.32l56.58-17.91a44.63,44.63,0,0,1-3.1-13.28l-3.43.56c-3.86.63-7.72,1.28-11.57,1.92l-12.9,2.13-12.3,2-12.9,2.14-6.2,1a.6.6,0,0,1-.78-.42q-7.62-18-15.27-36c-.09-.2-.16-.41-.27-.69l76,17.39A50.84,50.84,0,0,1,79,93.37l-3.66-1.8L51.32,80,21.58,65.58c-4.26-2.06-8.53-4.14-12.8-6.19a.72.72,0,0,1-.47-.68q-.53-5-1.08-10c-.31-2.84-.63-5.67-.94-8.51-.34-3.18-.67-6.37-1-9.55C5,27.85,4.65,25,4.34,22.17s-.6-5.67-.91-8.51S2.81,8,2.51,5.21C2.33,3.53,2.15,1.85,2,0L86.22,81.69A51.12,51.12,0,0,1,98.1,71.4a55.18,55.18,0,0,1,5.35-2.91c-1.08.77-2.19,1.5-3.23,2.32-8.86,6.91-14.57,15.82-16.51,26.92A42.22,42.22,0,0,0,93,133.14a43.47,43.47,0,0,0,25.33,15.24,49.22,49.22,0,0,0,13.33.79,42.5,42.5,0,0,0,16.54-4.4c12-6.07,19.93-15.59,23.45-28.64a41,41,0,0,0,1.09-15.41A43,43,0,0,0,163.17,78a44,44,0,0,0-10.32-9.21l-.38-.28a50.61,50.61,0,0,1,17.29,13.2Z"
              transform="translate(0.8 1.32)" fill="currentColor"/>
        <path d="M142.81,117.65l3.91-1.63.1.14c-3.7,4.54-7.85,8.73-10.86,13.7,1.61,2.33,3.16,4.6,4.74,6.86a.77.77,0,0,1,0,1.08c-.35.43-.64.9-1,1.39a6.7,6.7,0,0,1,1,1.59,6.72,6.72,0,0,1,0,2,5,5,0,0,0-3.48,2.91,17.15,17.15,0,0,0-7.9-1.48,8.55,8.55,0,0,1,6-4.14c0-.06,0-.14,0-.18-1.16-1.75-2.24-3.55-3.51-5.22a14.53,14.53,0,0,0-2.44-2.09c-.44-.37-.75-.16-.84.31a24.45,24.45,0,0,0-.49,2.82,27.85,27.85,0,0,0-.11,3.42,3.28,3.28,0,0,0,.44,1.4c.29.53.24.63-.32.85a8.37,8.37,0,0,0-1.62.91c-.12.08-.15.35-.16.54,0,.36,0,.72,0,1.19-2.63-.73-5.06-.61-7.24,1.15-.72-.39-1.5-.79-2.25-1.23a4,4,0,0,0-3.58-.29c-1.06.41-2.08.92-3.13,1.4a.66.66,0,0,1,0-.2c.33-.85.61-1.73,1-2.54a4.71,4.71,0,0,1,4.18-2.55c1.4-.11,2.81-.1,4.21-.24a2.87,2.87,0,0,0,2.73-2.92,5.69,5.69,0,0,0-2-4.67,25.81,25.81,0,0,0-5.67-3.69c-2.56-1.43-5.18-2.77-7.67-4.31a14.56,14.56,0,0,1-7.11-11.4,22,22,0,0,1,2.7-13.56,11.36,11.36,0,0,1,7.69-5.83,8.91,8.91,0,0,1,5.06.23c.81.31,1.68.46,2.74.74a19.06,19.06,0,0,0-.84-2.19,6.9,6.9,0,0,0-4.79-3.49c-2.43-.58-4.88-1.09-7.34-1.58a6.45,6.45,0,0,1-5.34-5.41c-.09-.54-.16-1.08-.22-1.63a4.89,4.89,0,0,1,2.34-4.61,4.68,4.68,0,0,1,1.12-.45c-.06,1.24-.2,2.37-.15,3.5a11.75,11.75,0,0,0,.48,2.75,2.84,2.84,0,0,0,.88,1.27c1,.85,2.1,1.62,3.13,2.45a.87.87,0,0,0,1.09.16,7.94,7.94,0,0,1,.31-7.65,3.44,3.44,0,0,1,2.7-1.72c-.06.3-.09.54-.15.76-.25,1-.46,2-.76,3a2.05,2.05,0,0,0,.24,2,13.27,13.27,0,0,0,1.95,2.08,30.09,30.09,0,0,0,2.73,1.82c.21-1.19.45-2.25.56-3.31a3,3,0,0,1,2.25-2.68c.22-.09.45-.15.73-.24-.08.58-.19,1.12-.22,1.66a9.54,9.54,0,0,0,1.49,5.4c.69,1.23,1.53,2.36,2.19,3.6a19.21,19.21,0,0,1,1.77,4,7.27,7.27,0,0,1-3.8,8.24c-.37.21-.75.4-1.12.6.73,2.32-.33,4.42-3,5.77,0-.54,0-1.06,0-1.57,0-.8.09-1.59.06-2.38a1.42,1.42,0,0,0-1.18-1.56c-.13.34-.26.69-.4,1a3.44,3.44,0,0,1-3.21,2.41,1.23,1.23,0,0,1-1.44-1.1c-.14-.52-.32-1-.54-1.72l3.61-2.26a1.8,1.8,0,0,0-.5-.2,6.43,6.43,0,0,0-3.36.42c-1.41.65-2,2-1.6,3.9a7.42,7.42,0,0,0,8.56,5.57c4.64-.81,9.31-5.27,9.94-10.37a56.45,56.45,0,0,0,.19-6.11c0-1.81,0-3.63,0-5.45a4.27,4.27,0,0,0-.28-1,3.43,3.43,0,0,1-.16-.93c.3-6.29,4.06-9.83,9.56-11.92a25.61,25.61,0,0,1,9.63-1.38c2,0,4.08.06,6.12.13,1,0,1.95.16,3,.25-.07.13-.09.22-.15.25-2.11,1.3-4.22,2.62-6.36,3.89a10.81,10.81,0,0,1-5.22,1.49c-4.1.15-6.89,2.29-8.69,5.86a20.69,20.69,0,0,0-1.79,5.94,2.52,2.52,0,0,0,0,.39c.51-1.31.95-2.6,1.51-3.83a12.28,12.28,0,0,1,5.79-6.32A11.46,11.46,0,0,1,147,80.8c1.5.33,2.18,1.27,1.88,2.5a2.81,2.81,0,0,1-.78,1.19,12,12,0,0,1-1.27,1c-.71.53-.89,1-.45,1.72a24,24,0,0,0,1.71,2.3,1.55,1.55,0,0,0,.38.21l-.14.19c-.84-.23-1.68-.47-2.53-.67-2.07-.49-4.16-.67-6.06.46a10.69,10.69,0,0,0-2.7,2.26,42.91,42.91,0,0,0-2.59,3.88l.19.14c.5-.59,1-1.19,1.5-1.77a12.89,12.89,0,0,1,5-3.76,6.27,6.27,0,0,1,8,2.54c2,3-.18,7.69-3.29,8a7,7,0,0,1-2.22-.22,12.77,12.77,0,0,1-1.92-.86,16.85,16.85,0,0,0,1.27-1.23,2.93,2.93,0,0,0,.69-1.17,1.45,1.45,0,0,0-.85-1.66,2.21,2.21,0,0,0-2.41.25,2.51,2.51,0,0,0-.82,3,6.31,6.31,0,0,0,4.23,3.77,21.57,21.57,0,0,0,2.74.58c-.26.63-.51,1.31-.81,2-1.13,2.43-2.28,4.86-3.42,7.29a1.83,1.83,0,0,0-.1.28l3.83-1.77-3.34,6.38ZM116.28,98.74c0,1.12.52,1.64,1.64,1.64,1,0,1.52-.58,1.54-1.64a1.4,1.4,0,0,0-1.57-1.53C116.81,97.21,116.28,97.72,116.28,98.74Z"
              transform="translate(0.8 1.32)" fill="currentColor"/>
    </g>
</svg>
